<svg xmlns="http://www.w3.org/2000/svg" width="1800" height="1100" viewBox="0 0 1800 1100">
<defs><marker id="arrow" markerWidth="10" markerHeight="7" refX="10" refY="3.5" orient="auto"><polygon points="0 0, 10 3.5, 0 7" fill="#333" /></marker></defs>
<rect x="0" y="0" width="1800" height="1100" fill="white" />
<rect x="80" y="140" width="180" height="70" rx="10" ry="10" fill="#eef7ff" stroke="#333" />
<text x="170.0" y="179.0" font-family="Arial" font-size="12" text-anchor="middle" fill="#111">Trainee</text>
<rect x="80" y="260" width="180" height="70" rx="10" ry="10" fill="#eef7ff" stroke="#333" />
<text x="170.0" y="299.0" font-family="Arial" font-size="12" text-anchor="middle" fill="#111">Trainer</text>
<rect x="520" y="200" width="360" height="140" rx="10" ry="10" fill="#e8f4ff" stroke="#333" />
<text x="700.0" y="274.0" font-family="Arial" font-size="12" text-anchor="middle" fill="#111">CKA Mentor AI Platform</text>
<rect x="1080" y="120" width="220" height="70" rx="10" ry="10" fill="#fff3e6" stroke="#333" />
<text x="1190.0" y="159.0" font-family="Arial" font-size="12" text-anchor="middle" fill="#111">LLM Providers</text>
<rect x="1080" y="220" width="220" height="70" rx="10" ry="10" fill="#fff3e6" stroke="#333" />
<text x="1190.0" y="259.0" font-family="Arial" font-size="12" text-anchor="middle" fill="#111">Notification Service</text>
<rect x="1080" y="320" width="220" height="70" rx="10" ry="10" fill="#fff3e6" stroke="#333" />
<text x="1190.0" y="359.0" font-family="Arial" font-size="12" text-anchor="middle" fill="#111">Sandbox/Cluster Provider</text>
<rect x="1080" y="420" width="220" height="70" rx="10" ry="10" fill="#fff3e6" stroke="#333" />
<text x="1190.0" y="459.0" font-family="Arial" font-size="12" text-anchor="middle" fill="#111">Identity Provider</text>
<line x1="260" y1="175" x2="520" y2="240" stroke="#333" stroke-width="1.5" marker-end="url(#arrow)" />
<line x1="260" y1="295" x2="520" y2="300" stroke="#333" stroke-width="1.5" marker-end="url(#arrow)" />
<line x1="880" y1="240" x2="1080" y2="155" stroke="#333" stroke-width="1.5" marker-end="url(#arrow)" />
<line x1="880" y1="270" x2="1080" y2="255" stroke="#333" stroke-width="1.5" marker-end="url(#arrow)" />
<line x1="880" y1="300" x2="1080" y2="355" stroke="#333" stroke-width="1.5" marker-end="url(#arrow)" />
<line x1="880" y1="330" x2="1080" y2="455" stroke="#333" stroke-width="1.5" marker-end="url(#arrow)" />
</svg>