<svg xmlns="http://www.w3.org/2000/svg" width="1800" height="1100" viewBox="0 0 1800 1100">
<defs><marker id="arrow" markerWidth="10" markerHeight="7" refX="10" refY="3.5" orient="auto"><polygon points="0 0, 10 3.5, 0 7" fill="#333" /></marker></defs>
<rect x="0" y="0" width="1800" height="1100" fill="white" />
<rect x="60" y="120" width="180" height="70" rx="10" ry="10" fill="#eef7ff" stroke="#333" />
<text x="150.0" y="159.0" font-family="Arial" font-size="12" text-anchor="middle" fill="#111">Trainee</text>
<rect x="60" y="220" width="180" height="70" rx="10" ry="10" fill="#eef7ff" stroke="#333" />
<text x="150.0" y="259.0" font-family="Arial" font-size="12" text-anchor="middle" fill="#111">Trainer</text>
<rect x="300" y="60" width="960" height="780" fill="none" stroke="#777" stroke-dasharray="6,4" />
<text x="310" y="76" font-family="Arial" font-size="12" fill="#555">CKA Mentor AI Platform</text>
<rect x="340" y="120" width="220" height="70" rx="10" ry="10" fill="#e8f4ff" stroke="#333" />
<text x="450.0" y="152.0" font-family="Arial" font-size="12" text-anchor="middle" fill="#111">Web UI</text>
<text x="450.0" y="166.0" font-family="Arial" font-size="12" text-anchor="middle" fill="#111">(Next.js)</text>
<rect x="340" y="230" width="220" height="70" rx="10" ry="10" fill="#e8f4ff" stroke="#333" />
<text x="450.0" y="262.0" font-family="Arial" font-size="12" text-anchor="middle" fill="#111">Backend API</text>
<text x="450.0" y="276.0" font-family="Arial" font-size="12" text-anchor="middle" fill="#111">(Microservices)</text>
<rect x="340" y="340" width="220" height="70" rx="10" ry="10" fill="#fff3e6" stroke="#333" />
<text x="450.0" y="379.0" font-family="Arial" font-size="12" text-anchor="middle" fill="#111">LLM Gateway</text>
<rect x="340" y="450" width="220" height="70" rx="10" ry="10" fill="#fff3e6" stroke="#333" />
<text x="450.0" y="482.0" font-family="Arial" font-size="12" text-anchor="middle" fill="#111">Orchestrator</text>
<text x="450.0" y="496.0" font-family="Arial" font-size="12" text-anchor="middle" fill="#111">&amp; Workers</text>
<rect x="340" y="560" width="220" height="70" rx="10" ry="10" fill="#fff3e6" stroke="#333" />
<text x="450.0" y="599.0" font-family="Arial" font-size="12" text-anchor="middle" fill="#111">Sandbox Runner</text>
<rect x="640" y="200" width="220" height="70" rx="10" ry="10" fill="#e8f4ff" stroke="#333" />
<text x="750.0" y="239.0" font-family="Arial" font-size="12" text-anchor="middle" fill="#111">Postgres</text>
<rect x="640" y="300" width="220" height="70" rx="10" ry="10" fill="#e8f4ff" stroke="#333" />
<text x="750.0" y="339.0" font-family="Arial" font-size="12" text-anchor="middle" fill="#111">Redis</text>
<rect x="640" y="400" width="220" height="70" rx="10" ry="10" fill="#e8f4ff" stroke="#333" />
<text x="750.0" y="439.0" font-family="Arial" font-size="12" text-anchor="middle" fill="#111">Object Storage</text>
<rect x="980" y="120" width="220" height="70" rx="10" ry="10" fill="#fff3e6" stroke="#333" />
<text x="1090.0" y="159.0" font-family="Arial" font-size="12" text-anchor="middle" fill="#111">LLM Providers</text>
<rect x="980" y="220" width="220" height="70" rx="10" ry="10" fill="#fff3e6" stroke="#333" />
<text x="1090.0" y="259.0" font-family="Arial" font-size="12" text-anchor="middle" fill="#111">Notification Service</text>
<rect x="980" y="320" width="220" height="70" rx="10" ry="10" fill="#fff3e6" stroke="#333" />
<text x="1090.0" y="359.0" font-family="Arial" font-size="12" text-anchor="middle" fill="#111">Identity Provider</text>
<line x1="240" y1="155" x2="340" y2="155" stroke="#333" stroke-width="1.5" marker-end="url(#arrow)" />
<line x1="240" y1="255" x2="340" y2="155" stroke="#333" stroke-width="1.5" marker-end="url(#arrow)" />
<line x1="560" y1="155" x2="560" y2="265" stroke="#333" stroke-width="1.5" marker-end="url(#arrow)" />
<line x1="560" y1="265" x2="640" y2="235" stroke="#333" stroke-width="1.5" marker-end="url(#arrow)" />
<line x1="560" y1="265" x2="640" y2="335" stroke="#333" stroke-width="1.5" marker-end="url(#arrow)" />
<line x1="560" y1="265" x2="640" y2="435" stroke="#333" stroke-width="1.5" marker-end="url(#arrow)" />
<line x1="560" y1="265" x2="340" y2="375" stroke="#333" stroke-width="1.5" marker-end="url(#arrow)" />
<line x1="560" y1="265" x2="340" y2="485" stroke="#333" stroke-width="1.5" marker-end="url(#arrow)" />
<line x1="560" y1="265" x2="340" y2="595" stroke="#333" stroke-width="1.5" marker-end="url(#arrow)" />
<line x1="560" y1="375" x2="980" y2="155" stroke="#333" stroke-width="1.5" marker-end="url(#arrow)" />
<line x1="560" y1="485" x2="980" y2="255" stroke="#333" stroke-width="1.5" marker-end="url(#arrow)" />
<line x1="560" y1="265" x2="980" y2="355" stroke="#333" stroke-width="1.5" marker-end="url(#arrow)" />
</svg>