<svg xmlns="http://www.w3.org/2000/svg" width="2000" height="1200" viewBox="0 0 2000 1200">
<defs><marker id="arrow" markerWidth="10" markerHeight="7" refX="10" refY="3.5" orient="auto"><polygon points="0 0, 10 3.5, 0 7" fill="#333" /></marker></defs>
<rect x="0" y="0" width="2000" height="1200" fill="white" />
<rect x="100" y="220" width="180" height="70" rx="10" ry="10" fill="#eef7ff" stroke="#333" />
<text x="190.0" y="259.0" font-family="Arial" font-size="12" text-anchor="middle" fill="#111">Trainee</text>
<rect x="100" y="330" width="180" height="70" rx="10" ry="10" fill="#eef7ff" stroke="#333" />
<text x="190.0" y="369.0" font-family="Arial" font-size="12" text-anchor="middle" fill="#111">Trainer</text>
<rect x="380" y="275" width="200" height="70" rx="10" ry="10" fill="#e8f4ff" stroke="#333" />
<text x="480.0" y="314.0" font-family="Arial" font-size="12" text-anchor="middle" fill="#111">Web UI</text>
<rect x="650" y="275" width="220" height="70" rx="10" ry="10" fill="#e8f4ff" stroke="#333" />
<text x="760.0" y="314.0" font-family="Arial" font-size="12" text-anchor="middle" fill="#111">API Gateway</text>
<rect x="980" y="160" width="220" height="70" rx="10" ry="10" fill="#f5f5f5" stroke="#333" />
<text x="1090.0" y="199.0" font-family="Arial" font-size="12" text-anchor="middle" fill="#111">Assessment Service</text>
<rect x="980" y="275" width="220" height="70" rx="10" ry="10" fill="#f5f5f5" stroke="#333" />
<text x="1090.0" y="314.0" font-family="Arial" font-size="12" text-anchor="middle" fill="#111">Plan Service</text>
<rect x="980" y="390" width="220" height="70" rx="10" ry="10" fill="#f5f5f5" stroke="#333" />
<text x="1090.0" y="429.0" font-family="Arial" font-size="12" text-anchor="middle" fill="#111">Training Service</text>
<rect x="1300" y="170" width="220" height="70" rx="10" ry="10" fill="#e8f4ff" stroke="#333" />
<text x="1410.0" y="209.0" font-family="Arial" font-size="12" text-anchor="middle" fill="#111">Postgres</text>
<rect x="1300" y="285" width="220" height="70" rx="10" ry="10" fill="#e8f4ff" stroke="#333" />
<text x="1410.0" y="324.0" font-family="Arial" font-size="12" text-anchor="middle" fill="#111">Object Storage</text>
<rect x="1300" y="400" width="220" height="70" rx="10" ry="10" fill="#e8f4ff" stroke="#333" />
<text x="1410.0" y="439.0" font-family="Arial" font-size="12" text-anchor="middle" fill="#111">Redis</text>
<rect x="1600" y="160" width="220" height="70" rx="10" ry="10" fill="#fff3e6" stroke="#333" />
<text x="1710.0" y="199.0" font-family="Arial" font-size="12" text-anchor="middle" fill="#111">LLM Gateway</text>
<rect x="1600" y="275" width="220" height="70" rx="10" ry="10" fill="#fff3e6" stroke="#333" />
<text x="1710.0" y="314.0" font-family="Arial" font-size="12" text-anchor="middle" fill="#111">Notification Service</text>
<rect x="1600" y="390" width="220" height="70" rx="10" ry="10" fill="#fff3e6" stroke="#333" />
<text x="1710.0" y="429.0" font-family="Arial" font-size="12" text-anchor="middle" fill="#111">Sandbox Runner</text>
<rect x="1600" y="505" width="220" height="70" rx="10" ry="10" fill="#fff3e6" stroke="#333" />
<text x="1710.0" y="544.0" font-family="Arial" font-size="12" text-anchor="middle" fill="#111">Observability</text>
<line x1="280" y1="255" x2="380" y2="310" stroke="#333" stroke-width="1.5" marker-end="url(#arrow)" />
<line x1="280" y1="365" x2="380" y2="310" stroke="#333" stroke-width="1.5" marker-end="url(#arrow)" />
<line x1="580" y1="310" x2="650" y2="310" stroke="#333" stroke-width="1.5" marker-end="url(#arrow)" />
<line x1="870" y1="310" x2="980" y2="195" stroke="#333" stroke-width="1.5" marker-end="url(#arrow)" />
<line x1="870" y1="310" x2="980" y2="310" stroke="#333" stroke-width="1.5" marker-end="url(#arrow)" />
<line x1="870" y1="310" x2="980" y2="425" stroke="#333" stroke-width="1.5" marker-end="url(#arrow)" />
<line x1="1200" y1="195" x2="1300" y2="205" stroke="#333" stroke-width="1.5" marker-end="url(#arrow)" />
<line x1="1200" y1="310" x2="1300" y2="320" stroke="#333" stroke-width="1.5" marker-end="url(#arrow)" />
<line x1="1200" y1="425" x2="1300" y2="435" stroke="#333" stroke-width="1.5" marker-end="url(#arrow)" />
<line x1="1520" y1="205" x2="1600" y2="205" stroke="#333" stroke-width="1.5" marker-end="url(#arrow)" />
<line x1="1520" y1="320" x2="1600" y2="320" stroke="#333" stroke-width="1.5" marker-end="url(#arrow)" />
<line x1="1520" y1="435" x2="1600" y2="435" stroke="#333" stroke-width="1.5" marker-end="url(#arrow)" />
<line x1="1200" y1="425" x2="1600" y2="520" stroke="#333" stroke-width="1.5" marker-end="url(#arrow)" />
</svg>